# xmcd CD database file
#
# Track frame offsets:
#	150
#	23107
#	42592
#	65855
#	81562
#	103554
#	119745
#	141012
#	160517
#	175905
#	194970
#	216080
#
# Disc length: 3208 seconds
#
# Revision: 0
# Processed by: cddbd v1.5.2PL0 Copyright (c) Steve Scherf et al.
# Submitted via: CDex 1.51
#
DISCID=b90c860c
DTITLE=Various Artist - Jazz Moments Entertaining Friends
DYEAR=2004
DGENRE=Jazz
TTITLE0=Paul Desmond featuring Jim Hall-The Night Has A Thousand Eyes
TTITLE1=Etta James-How Deep Is The Ocean
TTITLE2=Sonny Rollins-Where Are You
TTITLE3=Ella Fitzgerald-'S Wonderful
TTITLE4=Paul Desmond-Body And Soul
TTITLE5=Joe Williams-Nice Work If You Can Get It 
TTITLE6=Paul Desmond featuring Jim Hall-Bossa Antigua
TTITLE7=Duke Ellington and His Orchestra-Blood Count
TTITLE8=Carmen McCrae-I've Got The World On A String
TTITLE9=Esquire's All American Jazz-Snafu
TTITLE10=Sonny Rollins and Coleman Harris-Just Friends
TTITLE11=John Coltrane and Johnny Hartman-Lush Life
EXTD=YEAR: 2004
EXTT0=
EXTT1=
EXTT2=
EXTT3=
EXTT4=
EXTT5=
EXTT6=
EXTT7=
EXTT8=
EXTT9=
EXTT10=
EXTT11=
PLAYORDER=
